<svg width="111" height="31" viewBox="0 0 111 31" fill="none" xmlns="http://www.w3.org/2000/svg">
<path d="M0.47 5.034L6.132 4.122V10.012H12.934V14.724H6.132V21.754C6.132 22.9447 6.33467 23.8947 6.74 24.604C7.17067 25.3133 8.01933 25.668 9.286 25.668C9.894 25.668 10.5147 25.6173 11.148 25.516C11.8067 25.3893 12.402 25.2247 12.934 25.022L13.732 29.43C13.048 29.7087 12.288 29.9493 11.452 30.152C10.616 30.3547 9.59 30.456 8.374 30.456C6.82867 30.456 5.54933 30.2533 4.536 29.848C3.52267 29.4173 2.712 28.8347 2.104 28.1C1.496 27.34 1.06533 26.428 0.812 25.364C0.584 24.3 0.47 23.122 0.47 21.83V5.034ZM23.2068 30H17.5448V10.012H23.2068V30ZM23.7388 4.236C23.7388 5.27467 23.3968 6.098 22.7128 6.706C22.0541 7.28867 21.2688 7.58 20.3568 7.58C19.4448 7.58 18.6468 7.28867 17.9628 6.706C17.3041 6.098 16.9748 5.27467 16.9748 4.236C16.9748 3.19733 17.3041 2.38667 17.9628 1.804C18.6468 1.196 19.4448 0.891999 20.3568 0.891999C21.2688 0.891999 22.0541 1.196 22.7128 1.804C23.3968 2.38667 23.7388 3.19733 23.7388 4.236ZM28.5291 10.696C29.4918 10.4173 30.7331 10.164 32.2531 9.936C33.7731 9.68267 35.3691 9.556 37.0411 9.556C38.7385 9.556 40.1445 9.784 41.2591 10.24C42.3991 10.6707 43.2985 11.2913 43.9571 12.102C44.6158 12.9127 45.0845 13.8753 45.3631 14.99C45.6418 16.1047 45.7811 17.346 45.7811 18.714V30H40.1191V19.398C40.1191 17.574 39.8785 16.282 39.3971 15.522C38.9158 14.762 38.0165 14.382 36.6991 14.382C36.2938 14.382 35.8631 14.4073 35.4071 14.458C34.9511 14.4833 34.5458 14.5213 34.1911 14.572V30H28.5291V10.696Z" fill="black"/>
<path d="M59.1901 3.362C63.1168 3.362 66.1314 4.05867 68.2341 5.452C70.3368 6.82 71.3881 9.07467 71.3881 12.216C71.3881 15.3827 70.3241 17.6753 68.1961 19.094C66.0681 20.4873 63.0281 21.184 59.0761 21.184H57.2141V30H51.2861V4.046C52.5781 3.79267 53.9461 3.61533 55.3901 3.514C56.8341 3.41267 58.1008 3.362 59.1901 3.362ZM59.5701 8.416C59.1394 8.416 58.7088 8.42867 58.2781 8.454C57.8728 8.47933 57.5181 8.50467 57.2141 8.53V16.13H59.0761C61.1281 16.13 62.6734 15.8513 63.7121 15.294C64.7508 14.7367 65.2701 13.698 65.2701 12.178C65.2701 11.4433 65.1308 10.8353 64.8521 10.354C64.5988 9.87267 64.2188 9.49267 63.7121 9.214C63.2308 8.91 62.6354 8.70733 61.9261 8.606C61.2168 8.47933 60.4314 8.416 59.5701 8.416ZM73.8545 20.158C73.8545 18.3847 74.1205 16.8393 74.6525 15.522C75.2099 14.1793 75.9319 13.0647 76.8185 12.178C77.7052 11.2913 78.7185 10.62 79.8585 10.164C81.0239 9.708 82.2145 9.48 83.4305 9.48C86.2679 9.48 88.5099 10.354 90.1565 12.102C91.8032 13.8247 92.6265 16.3707 92.6265 19.74C92.6265 20.0693 92.6139 20.4367 92.5885 20.842C92.5632 21.222 92.5379 21.564 92.5125 21.868H79.6685C79.7952 23.0333 80.3399 23.958 81.3025 24.642C82.2652 25.326 83.5572 25.668 85.1785 25.668C86.2172 25.668 87.2305 25.5793 88.2185 25.402C89.2319 25.1993 90.0552 24.9587 90.6885 24.68L91.4485 29.278C91.1445 29.43 90.7392 29.582 90.2325 29.734C89.7259 29.886 89.1559 30.0127 88.5225 30.114C87.9145 30.2407 87.2559 30.342 86.5465 30.418C85.8372 30.494 85.1279 30.532 84.4185 30.532C82.6199 30.532 81.0492 30.266 79.7065 29.734C78.3892 29.202 77.2872 28.48 76.4005 27.568C75.5392 26.6307 74.8932 25.5287 74.4625 24.262C74.0572 22.9953 73.8545 21.6273 73.8545 20.158ZM87.1545 17.992C87.1292 17.5107 87.0405 17.042 86.8885 16.586C86.7619 16.13 86.5465 15.7247 86.2425 15.37C85.9639 15.0153 85.5965 14.724 85.1405 14.496C84.7099 14.268 84.1652 14.154 83.5065 14.154C82.8732 14.154 82.3285 14.268 81.8725 14.496C81.4165 14.6987 81.0365 14.9773 80.7325 15.332C80.4285 15.6867 80.1879 16.1047 80.0105 16.586C79.8585 17.042 79.7445 17.5107 79.6685 17.992H87.1545ZM96.8059 5.034L102.468 4.122V10.012H109.27V14.724H102.468V21.754C102.468 22.9447 102.671 23.8947 103.076 24.604C103.507 25.3133 104.355 25.668 105.622 25.668C106.23 25.668 106.851 25.6173 107.484 25.516C108.143 25.3893 108.738 25.2247 109.27 25.022L110.068 29.43C109.384 29.7087 108.624 29.9493 107.788 30.152C106.952 30.3547 105.926 30.456 104.71 30.456C103.165 30.456 101.885 30.2533 100.872 29.848C99.8586 29.4173 99.0479 28.8347 98.4399 28.1C97.8319 27.34 97.4013 26.428 97.1479 25.364C96.9199 24.3 96.8059 23.122 96.8059 21.83V5.034Z" fill="#FF02EF"/>
</svg>
